<svg width="449" height="113" viewBox="0 0 449 113" fill="none" xmlns="http://www.w3.org/2000/svg">
<path d="M0.0367213 93.5057C0.0367213 89.5039 1.17483 86.0162 3.41435 83.0057C5.69059 79.9952 8.81123 77.6455 12.8497 76.0301C16.8882 74.4147 21.5141 73.5703 26.7641 73.5703C29.3708 73.5703 32.0508 73.7539 34.7309 74.1577C37.411 74.5616 39.7607 75.1857 41.7432 76.0668V72.7626C41.7432 68.871 40.5684 65.8605 38.2187 63.7678C35.8691 61.6751 32.418 60.6105 27.8288 60.6105C24.4145 60.6105 21.1837 61.1979 18.0997 62.4094C15.0158 63.5842 11.7483 65.3465 8.33394 67.6594L3.23077 57.1961C7.34268 54.516 11.5647 52.4968 15.8969 51.1384C20.2291 49.78 24.7449 49.1191 29.5176 49.1191C38.4023 49.1191 45.3044 51.322 50.2607 55.6909C55.217 60.0598 57.6768 66.3378 57.6768 74.4514V94.0197C57.6768 95.6718 57.9705 96.8466 58.5579 97.5442C59.1454 98.2417 60.1366 98.6823 61.4583 98.8292V111.789C60.0265 112.009 58.7415 112.23 57.6034 112.376C56.4653 112.523 55.474 112.633 54.703 112.633C51.5457 112.633 49.1226 111.936 47.5072 110.504C45.8918 109.072 44.8638 107.347 44.46 105.291L44.0929 102.06C41.4128 105.548 38.0351 108.228 33.9967 110.137C29.9582 112.046 25.8463 113.001 21.6242 113.001C17.4022 113.001 13.8043 112.156 10.5 110.467C7.19584 108.778 4.6259 106.466 2.79023 103.528C0.917844 100.591 0 97.2872 0 93.5791L0.0367213 93.5057ZM38.8061 96.6264C39.6872 95.7085 40.3848 94.7907 40.9355 93.8361C41.4862 92.9183 41.7799 92.0739 41.7799 91.3029V85.1718C39.8708 84.4008 37.8148 83.8134 35.612 83.3728C33.4092 82.9322 31.2799 82.7487 29.2973 82.7487C25.1854 82.7487 21.7711 83.6298 19.1277 85.3553C16.4843 87.0809 15.126 89.3938 15.126 92.2575C15.126 93.7994 15.5665 95.268 16.4476 96.6631C17.3288 98.0582 18.577 99.1596 20.2658 100.041C21.9179 100.885 23.9005 101.326 26.2134 101.326C28.5264 101.326 30.9127 100.885 33.2257 100.004C35.5386 99.1229 37.3743 98.0215 38.8061 96.6998V96.6264Z" fill="black"/>
<path d="M101.586 112.892C96.5194 112.892 91.967 112.047 87.9285 110.358C83.89 108.67 80.4389 106.32 77.5753 103.309C74.7117 100.299 72.5089 96.8845 70.9669 93.0296C69.4249 89.1747 68.6539 85.1362 68.6539 80.9141C68.6539 75.1134 69.9756 69.79 72.6557 64.9805C75.2991 60.1711 79.0806 56.3161 84.0002 53.4158C88.9198 50.5154 94.7572 49.0469 101.476 49.0469C108.194 49.0469 113.995 50.5154 118.841 53.4525C123.687 56.3896 127.285 60.2445 129.672 64.9805L114.105 69.7165C112.747 67.4036 110.985 65.6413 108.745 64.4298C106.542 63.2183 104.082 62.5941 101.366 62.5941C98.3551 62.5941 95.6016 63.3651 93.1051 64.8704C90.6086 66.3756 88.6628 68.5417 87.231 71.2952C85.7991 74.0487 85.1016 77.2795 85.1016 80.9141C85.1016 84.5488 85.8358 87.6694 87.3044 90.4229C88.7729 93.1764 90.7187 95.3425 93.1785 96.9579C95.6383 98.5366 98.3551 99.3443 101.366 99.3443C103.275 99.3443 105.074 99.0139 106.763 98.3898C108.451 97.7656 109.993 96.8845 111.352 95.7831C112.71 94.6817 113.701 93.3967 114.325 91.9649L129.892 96.7009C128.46 99.7849 126.367 102.575 123.651 105.035C120.934 107.495 117.703 109.404 114.032 110.799C110.36 112.194 106.212 112.892 101.623 112.892H101.586Z" fill="black"/>
<path d="M135.362 93.5057C135.362 89.5039 136.5 86.0162 138.74 83.0057C141.016 79.9952 144.137 77.6455 148.175 76.0301C152.214 74.4147 156.839 73.5703 162.089 73.5703C164.696 73.5703 167.376 73.7539 170.056 74.1577C172.736 74.5616 175.086 75.1857 177.069 76.0668V72.7626C177.069 68.871 175.894 65.8605 173.544 63.7678C171.194 61.6751 167.743 60.6105 163.154 60.6105C159.74 60.6105 156.509 61.1979 153.425 62.4094C150.341 63.5842 147.074 65.3465 143.659 67.6594L138.556 57.1961C142.668 54.516 146.89 52.4968 151.222 51.1384C155.554 49.78 160.07 49.1191 164.843 49.1191C173.728 49.1191 180.63 51.322 185.586 55.6909C190.542 60.0598 193.002 66.3378 193.002 74.4514V94.0197C193.002 95.6718 193.296 96.8466 193.883 97.5442C194.471 98.2417 195.462 98.6823 196.784 98.8292V111.789C195.352 112.009 194.067 112.23 192.929 112.376C191.791 112.523 190.799 112.633 190.028 112.633C186.871 112.633 184.448 111.936 182.833 110.504C181.217 109.072 180.189 107.347 179.785 105.291L179.418 102.06C176.738 105.548 173.36 108.228 169.322 110.137C165.284 112.046 161.172 113.001 156.95 113.001C152.727 113.001 149.13 112.156 145.825 110.467C142.521 108.778 139.951 106.466 138.116 103.528C136.243 100.591 135.325 97.2872 135.325 93.5791L135.362 93.5057ZM174.095 96.6264C174.976 95.7085 175.673 94.7907 176.224 93.8361C176.775 92.9183 177.069 92.0739 177.069 91.3029V85.1718C175.159 84.4008 173.103 83.8134 170.901 83.3728C168.698 82.9322 166.568 82.7487 164.586 82.7487C160.474 82.7487 157.06 83.6298 154.416 85.3553C151.773 87.0809 150.415 89.3938 150.415 92.2575C150.415 93.7994 150.855 95.268 151.736 96.6631C152.617 98.0582 153.866 99.1596 155.554 100.041C157.207 100.885 159.189 101.326 161.502 101.326C163.815 101.326 166.201 100.885 168.514 100.004C170.827 99.1229 172.663 98.0215 174.095 96.6998V96.6264Z" fill="black"/>
<path d="M204.053 80.9044C204.053 74.9568 205.228 69.56 207.614 64.7505C210 59.941 213.268 56.1228 217.49 53.2959C221.675 50.469 226.485 49.0739 231.882 49.0739C236.471 49.0739 240.619 50.212 244.291 52.4515C247.962 54.691 250.862 57.5914 252.918 61.0792V24.9531H268.852V93.901C268.852 95.5531 269.146 96.7646 269.696 97.4622C270.247 98.1598 271.202 98.6003 272.56 98.7839V111.744C269.77 112.294 267.53 112.588 265.768 112.588C262.904 112.588 260.555 111.891 258.682 110.459C256.81 109.027 255.782 107.191 255.525 104.878L255.268 100.95C252.955 104.842 249.871 107.815 245.943 109.871C242.014 111.927 237.903 112.955 233.644 112.955C229.385 112.955 225.42 112.148 221.822 110.495C218.224 108.843 215.067 106.567 212.423 103.667C209.78 100.766 207.724 97.3888 206.256 93.4971C204.787 89.6055 204.053 85.4569 204.053 80.9779V80.9044ZM252.918 89.0915V74.5163C252.111 72.2768 250.862 70.2208 249.1 68.4586C247.375 66.6596 245.429 65.2645 243.263 64.1998C241.133 63.1351 238.967 62.6211 236.838 62.6211C234.378 62.6211 232.175 63.1351 230.193 64.1264C228.21 65.1176 226.485 66.5128 225.016 68.2016C223.548 69.9271 222.446 71.9096 221.675 74.1492C220.904 76.3887 220.537 78.775 220.537 81.2716C220.537 83.7681 220.941 86.1177 221.785 88.3205C222.63 90.5233 223.841 92.4692 225.42 94.0845C226.999 95.6999 228.834 96.9849 230.964 97.9395C233.056 98.8573 235.333 99.3346 237.792 99.3346C239.298 99.3346 240.84 99.0776 242.382 98.5636C243.924 98.0496 245.392 97.3521 246.787 96.4709C248.182 95.5898 249.394 94.4884 250.459 93.2034C251.523 91.9185 252.331 90.5233 252.882 89.0548L252.918 89.0915Z" fill="black"/>
<path d="M278.434 112.195L293.23 52.0954C293.56 50.8104 294.698 49.8926 296.057 49.8926H308.649L293.01 112.195H278.434Z" fill="#602AF8"/>
<path d="M372.788 111.717H356.855V77.2795C356.855 72.3599 355.974 68.762 354.248 66.4858C352.486 64.2095 350.1 63.0714 346.979 63.0714C344.85 63.0714 342.683 63.6221 340.517 64.6868C338.351 65.7882 336.369 67.2567 334.643 69.1658C332.881 71.0749 331.633 73.241 330.825 75.7375V111.717H314.891V50.0014H329.283V61.4927C330.862 58.8127 332.881 56.5731 335.341 54.7375C337.801 52.9018 340.627 51.5067 343.858 50.5154C347.052 49.5241 350.467 49.0469 354.028 49.0469C357.92 49.0469 361.114 49.7444 363.61 51.1028C366.107 52.4612 368.016 54.3336 369.301 56.6098C370.586 58.8861 371.503 61.5294 372.017 64.4298C372.531 67.3302 372.788 70.2673 372.788 73.241V111.68V111.717Z" fill="black"/>
<path d="M415.56 112.892C410.567 112.892 406.051 112.047 402.012 110.358C397.974 108.67 394.523 106.357 391.659 103.419C388.795 100.482 386.593 97.1048 385.051 93.3233C383.509 89.5051 382.738 85.5033 382.738 81.2813C382.738 75.4071 384.059 70.047 386.74 65.1641C389.42 60.2812 393.201 56.3896 398.157 53.4525C403.114 50.5154 408.951 49.0469 415.706 49.0469C422.462 49.0469 428.336 50.5154 433.182 53.4525C438.028 56.3896 441.736 60.2812 444.306 65.1274C446.876 69.9368 448.161 75.1501 448.161 80.7306C448.161 81.6851 448.124 82.6397 448.051 83.6309C447.978 84.6222 447.904 85.4299 447.794 86.054H399.626C399.956 89.138 400.874 91.8548 402.416 94.2044C403.958 96.5174 405.941 98.2796 408.364 99.4912C410.787 100.703 413.357 101.29 416.147 101.29C419.304 101.29 422.315 100.519 425.142 98.9772C427.969 97.4352 429.878 95.3792 430.906 92.846L444.563 96.6642C443.058 99.8216 440.892 102.649 438.102 105.108C435.275 107.568 431.97 109.477 428.189 110.872C424.371 112.267 420.186 112.965 415.596 112.965L415.56 112.892ZM399.296 75.9211H431.86C431.53 72.8372 430.649 70.1204 429.18 67.8442C427.712 65.5679 425.803 63.769 423.416 62.484C421.03 61.199 418.387 60.5749 415.449 60.5749C412.512 60.5749 410.016 61.199 407.666 62.484C405.317 63.769 403.407 65.5312 401.976 67.8442C400.507 70.1204 399.626 72.8372 399.296 75.9211Z" fill="black"/>
<path d="M309.017 27.7563L302.042 24.7091C300.353 23.9749 298.994 22.6165 298.26 20.9276L295.213 13.9521C294.993 13.4014 294.222 13.4014 293.965 13.9521L290.917 20.9276C290.183 22.6165 288.825 23.9749 287.136 24.7091L280.16 27.7563C279.61 27.9766 279.61 28.7476 280.16 29.0046L287.283 32.162C288.972 32.8962 290.293 34.2546 291.027 35.9434L293.965 42.7722C294.185 43.3229 294.956 43.3229 295.213 42.7722L298.26 35.7966C298.994 34.1078 300.353 32.7494 302.042 32.0151L309.017 28.9679C309.568 28.7476 309.568 27.9766 309.017 27.7196V27.7563Z" fill="#602AF8"/>
<path d="M316.36 7.85668L312.505 6.16786C311.587 5.76401 310.816 5.02974 310.412 4.07519L308.723 0.220281C308.577 -0.0734269 308.173 -0.0734269 308.026 0.220281L306.337 4.07519C305.933 4.99303 305.199 5.76401 304.244 6.16786L300.389 7.85668C300.096 8.00353 300.096 8.40738 300.389 8.55423L304.318 10.2798C305.236 10.6836 306.007 11.4546 306.374 12.3724L307.989 16.1539C308.136 16.4476 308.54 16.4476 308.687 16.1539L310.376 12.299C310.779 11.3812 311.514 10.6102 312.468 10.2063L316.323 8.51752C316.617 8.37067 316.617 7.96682 316.323 7.81997L316.36 7.85668Z" fill="#602AF8"/>
<path d="M323.115 25.626L320.545 24.5246C319.921 24.2676 319.444 23.7536 319.15 23.1295L318.049 20.5596C317.975 20.376 317.682 20.376 317.608 20.5596L316.507 23.1295C316.25 23.7536 315.736 24.2309 315.112 24.5246L312.542 25.626C312.358 25.6994 312.358 25.9931 312.542 26.0666L315.148 27.2047C315.773 27.4617 316.25 27.9757 316.507 28.5998L317.572 31.0963C317.645 31.2799 317.939 31.2799 318.012 31.0963L319.113 28.5264C319.37 27.9022 319.884 27.425 320.509 27.1313L323.079 26.0299C323.262 25.9564 323.262 25.6627 323.079 25.5893L323.115 25.626Z" fill="#602AF8"/>
</svg>
