<svg width="38" height="94" viewBox="0 0 38 94" fill="none" xmlns="http://www.w3.org/2000/svg">
<path d="M0.0944214 93.6518L12.4112 43.6789C12.6759 42.6025 13.6464 41.8438 14.7581 41.8438H25.222L12.2171 93.6518H0.112057H0.0944214Z" fill="#602AF8"/>
<path d="M25.5214 23.4701L19.7159 20.9468C18.3219 20.3292 17.1926 19.2175 16.575 17.8058L14.0516 12.0003C13.8575 11.5416 13.2223 11.5416 13.0282 12.0003L10.5048 17.8058C9.8872 19.1998 8.77551 20.3292 7.36385 20.9468L1.55839 23.4878C1.11725 23.6819 1.0996 24.3171 1.55839 24.5112L7.46975 27.1228C8.86377 27.7404 9.97543 28.8697 10.593 30.2637L13.0458 35.9457C13.2399 36.4045 13.8752 36.4045 14.0693 35.9457L16.5926 30.1579C17.2102 28.7639 18.3219 27.6345 19.7336 27.0169L25.539 24.4936C25.9978 24.2995 25.9978 23.6642 25.539 23.4701H25.5214Z" fill="#602AF8"/>
<path d="M31.627 6.89903L28.4154 5.50501C27.639 5.16974 27.0214 4.55214 26.6862 3.77572L25.2921 0.564187C25.1863 0.317146 24.8334 0.317146 24.7275 0.564187L23.3334 3.77572C22.9982 4.55214 22.3806 5.16974 21.6042 5.50501L18.3926 6.89903C18.1456 7.0049 18.1456 7.35782 18.3926 7.46369L21.6571 8.91065C22.4335 9.24592 23.0511 9.88117 23.3864 10.6576L24.7451 13.7985C24.851 14.0456 25.2039 14.0456 25.3098 13.7985L26.7038 10.587C27.0391 9.81058 27.6567 9.19298 28.4331 8.85771L31.6446 7.46369C31.8917 7.35782 31.8917 7.0049 31.6446 6.89903H31.627Z" fill="#602AF8"/>
<path d="M37.2209 21.6841L35.0858 20.7489C34.5741 20.5195 34.1682 20.1136 33.9388 19.6019L33.0036 17.4668C32.933 17.308 32.7036 17.308 32.633 17.4668L31.6978 19.6019C31.4684 20.1136 31.0625 20.5195 30.5508 20.7489L28.4157 21.6841C28.2569 21.7547 28.2569 21.9841 28.4157 22.0547L30.5861 23.0075C31.0978 23.2369 31.5037 23.6428 31.7331 24.1545L32.633 26.2367C32.7036 26.3955 32.933 26.3955 33.0036 26.2367L33.9388 24.1192C34.1682 23.6075 34.5741 23.2016 35.0858 22.9723L37.2209 22.037C37.3798 21.9664 37.3798 21.737 37.2209 21.6665V21.6841Z" fill="#602AF8"/>
</svg>
